<?xml version="1.0" encoding="UTF-8" standalone="no"?>
<svg preserveAspectRatio="xMidYMid slice" width="270px" height="79px" viewBox="0 0 412 120" version="1.1" xmlns="http://www.w3.org/2000/svg" xmlns:xlink="http://www.w3.org/1999/xlink" xmlns:sketch="http://www.bohemiancoding.com/sketch/ns">
    <!-- Generator: Sketch 3.4.2 (15855) - http://www.bohemiancoding.com/sketch -->
    <title>craft-cms-logo</title>
    <desc>Created with Sketch.</desc>
    <defs>
        <path id="path-1" d="M0.001,120 L411.563,120 L411.563,0.624 L0.001,0.624"></path>
    </defs>
    <g id="Page-1" stroke="none" stroke-width="1" fill="none" fill-rule="evenodd" sketch:type="MSPage">
        <g id="craft-cms-logo" sketch:type="MSLayerGroup">
            <path d="M207.3462,51.3789 L225.1722,51.3789 L227.2482,40.4769 L209.4232,40.4769 L212.4612,24.5319 L212.4002,24.5319 L198.8812,35.1349 L197.8662,40.4769 L183.8632,40.4769 L187.9562,18.9919 C188.9202,10.8859 201.2642,13.3399 203.1032,13.7989 L205.0752,3.4459 C182.8782,-5.0861 176.3972,18.9919 176.3972,18.9919 L172.3062,40.4769 L172.2342,40.4769 L158.3322,51.3789 L170.2302,51.3789 L157.1572,119.9999 L168.7172,119.9999 L181.7872,51.3789 L195.7892,51.3789 L190.6712,78.2389 C187.4182,97.7959 207.0062,95.6539 213.2562,94.3979 L215.2112,84.1549 C200.2572,87.5309 202.2282,78.2389 202.2282,78.2389 L207.3462,51.3789 Z" id="Fill-1" fill="#D95947" sketch:type="MSShapeGroup"></path>
            <path d="M138.9771,79.5449 C126.9491,91.8859 119.2471,83.8039 119.2471,83.8039 C114.0331,78.7279 119.7961,73.5139 119.7961,73.5139 C127.7531,66.2429 139.9281,74.2319 139.9281,74.2319 L138.9771,79.5449 Z M141.6381,64.6599 C141.6381,64.6599 125.0781,56.1609 113.4851,65.6259 C113.4851,65.6259 106.6951,70.1529 106.6951,79.2069 C106.6951,88.2629 114.9951,93.1299 114.9951,93.1299 C114.9951,93.1299 127.4781,99.7169 137.2521,89.1909 L136.1731,94.0889 L147.1051,94.0889 L153.9751,61.4989 C159.1311,29.3409 120.8161,40.7379 120.8161,40.7379 L118.7281,52.2989 C146.9731,39.9899 142.2151,61.4369 142.2151,61.4369 L141.6381,64.6599 Z" id="Fill-3" fill="#D95947" sketch:type="MSShapeGroup"></path>
            <path d="M111.0269,40.5098 C102.1129,40.6038 94.0119,45.5778 94.0119,45.5778 L95.0469,40.6978 L84.3469,40.6978 L74.5849,94.1888 L85.5179,94.1888 L92.1359,58.9978 C97.0279,49.0578 109.1219,52.1468 109.1219,52.1468 L111.0269,40.5098 Z" id="Fill-5" fill="#D95947" sketch:type="MSShapeGroup"></path>
            <g id="Group-9">
                <mask id="mask-2" sketch:name="Clip 8" fill="white">
                    <use xlink:href="#path-1"></use>
                </mask>
                <g id="Clip-8"></g>
                <path d="M69.312,17.5864 C69.865,18.0044 70.389,18.4464 70.904,18.8974 L79.202,12.3874 L79.46,12.0504 C78.189,10.7674 76.825,9.5534 75.347,8.4364 C56.306,-5.9356 27.532,0.0804 11.083,21.8774 C-5.365,43.6704 -3.263,72.9854 15.78,87.3604 C31.328,99.0944 53.358,97.2334 69.875,84.2944 L69.858,84.2604 L61.959,78.0644 C49.721,85.9354 34.536,86.5014 23.552,78.2114 C8.925,67.1714 7.311,44.6504 19.945,27.9084 C32.582,11.1674 54.684,6.5464 69.312,17.5864" id="Fill-7" fill="#D95947" sketch:type="MSShapeGroup" mask="url(#mask-2)"></path>
            </g>
            <path d="M281.3413,89.9561 C279.0063,91.4571 276.4423,92.6891 273.6493,93.6471 C270.8543,94.6031 267.8323,95.0851 264.5793,95.0851 C260.7423,95.0851 257.1983,94.3981 253.9453,93.0211 C250.6933,91.6441 247.8983,89.7491 245.5653,87.3291 C243.2303,84.9111 241.3953,82.0751 240.0623,78.8231 C238.7253,75.5701 238.0593,72.0681 238.0593,68.3151 C238.0593,64.5611 238.7043,61.0391 239.9973,57.7441 C241.2913,54.4521 243.1263,51.5741 245.5013,49.1141 C247.8783,46.6541 250.6933,44.7151 253.9453,43.2971 C257.1983,41.8791 260.7423,41.1691 264.5793,41.1691 C267.8323,41.1691 270.8543,41.6501 273.6493,42.6081 C276.4423,43.5681 279.0063,44.7971 281.3413,46.2981 L279.2153,49.4261 C277.1283,48.0931 274.9003,46.9861 272.5223,46.1111 C270.1473,45.2351 267.4963,44.7971 264.5793,44.7971 C261.2423,44.7971 258.1983,45.4031 255.4473,46.6121 C252.6953,47.8221 250.3383,49.4471 248.3783,51.4901 C246.4193,53.5341 244.8963,55.9741 243.8153,58.8081 C242.7303,61.6441 242.1883,64.6881 242.1883,67.9391 C242.1883,71.1921 242.7303,74.2571 243.8153,77.1341 C244.8963,80.0111 246.4193,82.5131 248.3783,84.6401 C250.3383,86.7671 252.6953,88.4351 255.4473,89.6441 C258.1983,90.8531 261.2423,91.4571 264.5793,91.4571 C267.4963,91.4571 270.1473,91.0181 272.5223,90.1431 C274.9003,89.2681 277.1283,88.1641 279.2153,86.8291 L281.3413,89.9561 Z" id="Fill-10" fill="#D95947" sketch:type="MSShapeGroup"></path>
            <path d="M363.6528,94.084 L363.6528,59.183 C363.6528,49.675 359.5648,44.922 351.3928,44.922 C347.6398,44.922 344.0538,46.007 340.6338,48.174 C337.2158,50.344 334.1718,53.222 331.5028,56.807 L331.5028,94.084 L327.5018,94.084 L327.5018,59.183 C327.5018,49.675 323.4128,44.922 315.2398,44.922 C311.4028,44.922 307.8388,46.007 304.5468,48.174 C301.2508,50.344 298.1848,53.013 295.3498,56.181 L295.3498,94.084 L291.3488,94.084 L291.3488,42.17 L295.2258,42.17 L295.2258,51.927 C296.3918,50.594 297.7278,49.281 299.2298,47.987 C300.7288,46.695 302.3358,45.547 304.0468,44.547 C305.7548,43.546 307.6108,42.733 309.6128,42.108 C311.6138,41.482 313.6958,41.169 315.8678,41.169 C319.3698,41.169 322.4538,42.129 325.1238,44.046 C327.7928,45.966 329.5858,48.925 330.5038,52.928 C333.0048,49.76 336.1328,47.008 339.8858,44.672 C343.6378,42.338 347.6818,41.169 352.0188,41.169 C354.1028,41.169 356.0848,41.503 357.9628,42.17 C359.8378,42.839 361.5038,43.902 362.9658,45.361 C364.4238,46.82 365.5698,48.656 366.4038,50.864 C367.2368,53.075 367.6548,55.723 367.6548,58.807 L367.6548,94.084 L363.6528,94.084 Z" id="Fill-12" fill="#D95947" sketch:type="MSShapeGroup"></path>
            <path d="M411.563,80.6992 C411.563,82.6192 411.187,84.4532 410.436,86.2042 C409.685,87.9562 408.601,89.4772 407.184,90.7692 C405.766,92.0632 404.077,93.1052 402.12,93.8962 C400.158,94.6882 397.927,95.0862 395.425,95.0862 C392.088,95.0862 388.962,94.5212 386.042,93.3962 C383.124,92.2692 380.331,90.7912 377.663,88.9552 L379.54,85.9542 C381.957,87.6222 384.459,88.9992 387.045,90.0822 C389.629,91.1662 392.424,91.7082 395.425,91.7082 C399.178,91.7082 402.18,90.7072 404.433,88.7052 C406.684,86.7032 407.81,84.2452 407.81,81.3242 C407.81,78.8232 407.141,76.8432 405.808,75.3832 C404.473,73.9242 402.786,72.6732 400.742,71.6302 C398.698,70.5882 396.507,69.6502 394.175,68.8142 C391.839,67.9822 389.651,66.9812 387.609,65.8122 C385.565,64.6462 383.875,63.1852 382.542,61.4342 C381.206,59.6822 380.54,57.3492 380.54,54.4292 C380.54,52.7622 380.893,51.1372 381.602,49.5522 C382.311,47.9682 383.333,46.5492 384.667,45.2982 C386.001,44.0472 387.627,43.0462 389.546,42.2962 C391.464,41.5452 393.675,41.1692 396.176,41.1692 C398.927,41.1692 401.536,41.5882 403.995,42.4202 C406.455,43.2562 408.852,44.5072 411.187,46.1732 L409.31,49.3022 C407.059,47.6342 404.913,46.4242 402.869,45.6732 C400.824,44.9222 398.594,44.5482 396.176,44.5482 C392.173,44.5482 389.191,45.5292 387.233,47.4872 C385.27,49.4472 384.292,51.6372 384.292,54.0532 C384.292,56.5552 384.959,58.5372 386.294,59.9962 C387.627,61.4562 389.317,62.6852 391.362,63.6862 C393.403,64.6872 395.592,65.6052 397.927,66.4382 C400.26,67.2722 402.451,68.2532 404.495,69.3782 C406.539,70.5052 408.226,71.9412 409.561,73.6932 C410.894,75.4442 411.563,77.7812 411.563,80.6992" id="Fill-14" fill="#D95947" sketch:type="MSShapeGroup"></path>
        </g>
    </g>
</svg>